<?xml version="1.0" encoding="UTF-8" standalone="no" ?>
<!DOCTYPE svg PUBLIC "-//W3C//DTD SVG 1.1//EN" "http://www.w3.org/Graphics/SVG/1.1/DTD/svg11.dtd">
<svg xmlns="http://www.w3.org/2000/svg" xmlns:xlink="http://www.w3.org/1999/xlink" version="1.1" width="1080" height="1080" viewBox="0 0 1080 1080" xml:space="preserve">
<desc>Created with Fabric.js 5.2.4</desc>
<defs>
</defs>
<rect x="0" y="0" width="100%" height="100%" fill="transparent"></rect>
<g transform="matrix(1 0 0 1 540 540)" id="6705d4ec-337a-4bfa-8126-6f83af4b61cd"  >
<rect style="stroke: none; stroke-width: 1; stroke-dasharray: none; stroke-linecap: butt; stroke-dashoffset: 0; stroke-linejoin: miter; stroke-miterlimit: 4; fill: rgb(255,255,255); fill-rule: nonzero; opacity: 1; visibility: hidden;" vector-effect="non-scaling-stroke"  x="-540" y="-540" rx="0" ry="0" width="1080" height="1080" />
</g>
<g transform="matrix(1 0 0 1 540 540)" id="a5a992df-ce70-472f-9ae9-b94fb1a0e61a"  >
</g>
<g transform="matrix(1 0 0 1 540 540)"  >
<g style="" vector-effect="non-scaling-stroke"   >
		<g transform="matrix(0.53 0 0 0.53 -148.66 115.48)"  >
<path style="stroke: none; stroke-width: 1; stroke-dasharray: none; stroke-linecap: butt; stroke-dashoffset: 0; stroke-linejoin: miter; stroke-miterlimit: 4; fill: rgb(61,174,27); fill-rule: nonzero; opacity: 1;" vector-effect="non-scaling-stroke"  transform=" translate(-833.53, -534.06)" d="M 882.32 542.47 C 886.1700000000001 547.51 888.1 553.72 888.1 561.09 C 888.1 571.52 884.0500000000001 579.5300000000001 875.95 585.14 C 867.85 590.75 856.0300000000001 593.56 840.5 593.56 L 778.96 593.56 L 778.96 474.55999999999995 L 837.1 474.55999999999995 C 851.61 474.55999999999995 862.74 477.3399999999999 870.51 482.88999999999993 C 878.27 488.43999999999994 882.15 495.9799999999999 882.15 505.49999999999994 C 882.15 511.2799999999999 880.76 516.4399999999999 877.98 520.9699999999999 C 875.2 525.4999999999999 871.32 529.0699999999999 866.34 531.68 C 873.14 533.8299999999999 878.47 537.43 882.32 542.4699999999999 Z M 806.33 495.3 L 806.33 523.35 L 833.7 523.35 C 840.5 523.35 845.6600000000001 522.16 849.1700000000001 519.78 C 852.6800000000001 517.4 854.44 513.89 854.44 509.23999999999995 C 854.44 504.5899999999999 852.6800000000001 501.10999999999996 849.1700000000001 498.78 C 845.6600000000001 496.46 840.5000000000001 495.29999999999995 833.7 495.29999999999995 L 806.33 495.29999999999995 Z M 854.87 569.25 C 858.55 566.87 860.39 563.19 860.39 558.2 C 860.39 548.34 853.08 543.4100000000001 838.46 543.4100000000001 L 806.33 543.4100000000001 L 806.33 572.82 L 838.46 572.82 C 845.71 572.82 851.1800000000001 571.63 854.87 569.25 Z" stroke-linecap="round" />
</g>
		<g transform="matrix(0.53 0 0 0.53 -80.64 115.48)"  >
<path style="stroke: none; stroke-width: 1; stroke-dasharray: none; stroke-linecap: butt; stroke-dashoffset: 0; stroke-linejoin: miter; stroke-miterlimit: 4; fill: rgb(61,174,27); fill-rule: nonzero; opacity: 1;" vector-effect="non-scaling-stroke"  transform=" translate(-961.72, -534.06)" d="M 984.83 593.56 L 961.88 560.41 L 936.55 560.41 L 936.55 593.56 L 909.01 593.56 L 909.01 474.55999999999995 L 960.52 474.55999999999995 C 971.06 474.55999999999995 980.21 476.31999999999994 987.98 479.8299999999999 C 995.74 483.3399999999999 1001.72 488.3299999999999 1005.9200000000001 494.7899999999999 C 1010.1100000000001 501.2499999999999 1012.21 508.8999999999999 1012.21 517.7399999999999 C 1012.21 526.5799999999999 1010.09 534.1999999999999 1005.83 540.6099999999999 C 1001.58 547.0099999999999 995.5400000000001 551.9099999999999 987.73 555.3199999999999 L 1014.4200000000001 593.5699999999999 L 984.84 593.5699999999999 Z M 977.86 502.34999999999997 C 973.5500000000001 498.78 967.26 496.98999999999995 958.99 496.98999999999995 L 936.55 496.98999999999995 L 936.55 538.4699999999999 L 958.99 538.4699999999999 C 967.26 538.4699999999999 973.55 536.66 977.86 533.0299999999999 C 982.17 529.3999999999999 984.32 524.2999999999998 984.32 517.7299999999999 C 984.32 511.15999999999997 982.1700000000001 505.9199999999999 977.86 502.3499999999999 Z" stroke-linecap="round" />
</g>
		<g transform="matrix(0.53 0 0 0.53 -35 115.48)"  >
<path style="stroke: none; stroke-width: 1; stroke-dasharray: none; stroke-linecap: butt; stroke-dashoffset: 0; stroke-linejoin: miter; stroke-miterlimit: 4; fill: rgb(61,174,27); fill-rule: nonzero; opacity: 1;" vector-effect="non-scaling-stroke"  transform=" translate(-1047.73, -534.06)" d="M 1033.96 474.56 L 1061.5 474.56 L 1061.5 593.56 L 1033.96 593.56 L 1033.96 474.55999999999995 Z" stroke-linecap="round" />
</g>
		<g transform="matrix(0.53 0 0 0.53 13.89 115.47)"  >
<path style="stroke: none; stroke-width: 1; stroke-dasharray: none; stroke-linecap: butt; stroke-dashoffset: 0; stroke-linejoin: miter; stroke-miterlimit: 4; fill: rgb(61,174,27); fill-rule: nonzero; opacity: 1;" vector-effect="non-scaling-stroke"  transform=" translate(-1139.87, -534.05)" d="M 1170.13 532.19 L 1195.2900000000002 532.19 L 1195.2900000000002 580.47 C 1188.8300000000002 585.34 1181.3500000000001 589.08 1172.8500000000001 591.69 C 1164.3500000000001 594.3000000000001 1155.7900000000002 595.6 1147.18 595.6 C 1134.8300000000002 595.6 1123.72 592.97 1113.8600000000001 587.69 C 1104.0000000000002 582.4200000000001 1096.2700000000002 575.11 1090.65 565.7600000000001 C 1085.03 556.4100000000002 1082.23 545.8400000000001 1082.23 534.0500000000001 C 1082.23 522.26 1085.03 511.69000000000005 1090.65 502.3400000000001 C 1096.26 492.99000000000007 1104.0500000000002 485.68000000000006 1114.0300000000002 480.4100000000001 C 1124.0000000000002 475.1400000000001 1135.2200000000003 472.50000000000006 1147.6900000000003 472.50000000000006 C 1158.1200000000003 472.50000000000006 1167.5800000000004 474.26000000000005 1176.0800000000004 477.77000000000004 C 1184.5800000000004 481.28000000000003 1191.7200000000005 486.38000000000005 1197.5000000000005 493.07000000000005 L 1179.8200000000004 509.39000000000004 C 1171.3200000000004 500.44000000000005 1161.0600000000004 495.96000000000004 1149.0500000000004 495.96000000000004 C 1141.4600000000005 495.96000000000004 1134.7100000000005 497.55 1128.8200000000004 500.72 C 1122.9300000000003 503.89000000000004 1118.3400000000004 508.37 1115.0500000000004 514.15 C 1111.7600000000004 519.93 1110.1200000000003 526.56 1110.1200000000003 534.04 C 1110.1200000000003 541.52 1111.7600000000004 547.98 1115.0500000000004 553.76 C 1118.3400000000004 559.54 1122.9000000000003 564.05 1128.7300000000005 567.28 C 1134.5700000000004 570.51 1141.2300000000005 572.12 1148.7000000000005 572.12 C 1156.6300000000006 572.12 1163.7700000000004 570.42 1170.1200000000006 567.02 L 1170.1200000000006 532.17 Z" stroke-linecap="round" />
</g>
		<g transform="matrix(0.53 0 0 0.53 85.79 115.48)"  >
<path style="stroke: none; stroke-width: 1; stroke-dasharray: none; stroke-linecap: butt; stroke-dashoffset: 0; stroke-linejoin: miter; stroke-miterlimit: 4; fill: rgb(61,174,27); fill-rule: nonzero; opacity: 1;" vector-effect="non-scaling-stroke"  transform=" translate(-1275.36, -534.06)" d="M 1329.93 474.56 L 1329.93 593.56 L 1302.39 593.56 L 1302.39 544.77 L 1248.3300000000002 544.77 L 1248.3300000000002 593.56 L 1220.7900000000002 593.56 L 1220.7900000000002 474.55999999999995 L 1248.3300000000002 474.55999999999995 L 1248.3300000000002 521.4799999999999 L 1302.39 521.4799999999999 L 1302.39 474.5599999999999 L 1329.93 474.5599999999999 Z" stroke-linecap="round" />
</g>
		<g transform="matrix(0.53 0 0 0.53 150.11 115.48)"  >
<path style="stroke: none; stroke-width: 1; stroke-dasharray: none; stroke-linecap: butt; stroke-dashoffset: 0; stroke-linejoin: miter; stroke-miterlimit: 4; fill: rgb(61,174,27); fill-rule: nonzero; opacity: 1;" vector-effect="non-scaling-stroke"  transform=" translate(-1396.56, -534.06)" d="M 1382.79 497 L 1344.71 497 L 1344.71 474.56 L 1448.41 474.56 L 1448.41 497 L 1410.3300000000002 497 L 1410.3300000000002 593.56 L 1382.7900000000002 593.56 L 1382.7900000000002 496.99999999999994 Z" stroke-linecap="round" />
</g>
		<g transform="matrix(1 0 0 1 93.87 24.53)"  >
<polygon style="stroke: none; stroke-width: 1; stroke-dasharray: none; stroke-linecap: butt; stroke-dashoffset: 0; stroke-linejoin: miter; stroke-miterlimit: 4; fill: rgb(61,174,27); fill-rule: nonzero; opacity: 1;" vector-effect="non-scaling-stroke"  points="0,-17.62 43.75,-17.62 69.96,17.62 0,17.62 -43.75,17.62 -69.96,-17.62 0,-17.62 " />
</g>
		<g transform="matrix(1 0 0 1 64.22 -53)"  >
<polygon style="stroke: none; stroke-width: 1; stroke-dasharray: none; stroke-linecap: butt; stroke-dashoffset: 0; stroke-linejoin: miter; stroke-miterlimit: 4; fill: rgb(61,174,27); fill-rule: nonzero; opacity: 1;" vector-effect="non-scaling-stroke"  points="46.83,-17.62 22.87,17.62 -46.83,17.62 -23.18,-17.62 46.83,-17.62 " />
</g>
		<g transform="matrix(1 0 0 1 94.58 -130.51)"  >
<polygon style="stroke: none; stroke-width: 1; stroke-dasharray: none; stroke-linecap: butt; stroke-dashoffset: 0; stroke-linejoin: miter; stroke-miterlimit: 4; fill: rgb(61,174,27); fill-rule: nonzero; opacity: 1;" vector-effect="non-scaling-stroke"  points="69.23,-17.61 69.23,-17.62 -0.7,-17.62 -45.61,-17.62 -69.25,17.61 -0.7,17.61 35.72,17.61 35.72,17.62 45.27,17.62 69.25,-17.62 69.23,-17.61 " />
</g>
		<g transform="matrix(1 0 0 1 -80.2 24.52)"  >
<polygon style="stroke: none; stroke-width: 1; stroke-dasharray: none; stroke-linecap: butt; stroke-dashoffset: 0; stroke-linejoin: miter; stroke-miterlimit: 4; fill: rgb(61,174,27); fill-rule: nonzero; opacity: 1;" vector-effect="non-scaling-stroke"  points="0.69,-17.61 -44.2,-17.61 -45.26,-17.62 -69.24,17.62 0.69,17.62 45.6,17.62 69.24,-17.61 0.69,-17.61 " />
</g>
		<g transform="matrix(1 0 0 1 -49.85 -53)"  >
<polygon style="stroke: none; stroke-width: 1; stroke-dasharray: none; stroke-linecap: butt; stroke-dashoffset: 0; stroke-linejoin: miter; stroke-miterlimit: 4; fill: rgb(61,174,27); fill-rule: nonzero; opacity: 1;" vector-effect="non-scaling-stroke"  points="-22.87,-17.62 0.14,-17.62 46.83,-17.62 23.18,17.62 0.14,17.62 -46.83,17.62 -22.87,-17.62 " />
</g>
		<g transform="matrix(1 0 0 1 -79.5 -130.51)"  >
<polygon style="stroke: none; stroke-width: 1; stroke-dasharray: none; stroke-linecap: butt; stroke-dashoffset: 0; stroke-linejoin: miter; stroke-miterlimit: 4; fill: rgb(61,174,27); fill-rule: nonzero; opacity: 1;" vector-effect="non-scaling-stroke"  points="0,17.62 -43.75,17.62 -69.95,-17.62 0,-17.62 43.74,-17.62 69.95,17.62 0,17.62 " />
</g>
</g>
</g>
</svg>