<?xml version="1.0" encoding="utf-8"?>
<svg id="Layer_1" data-name="Layer 1" viewBox="415.847 400 384.153 300" xmlns="http://www.w3.org/2000/svg">
  <defs>
    <style>
      .cls-1 {
        fill: #72d241;
      }

      .cls-2 {
        fill: #1a1a1a;
      }
    </style>
  </defs>
  <g transform="matrix(1, 0, 0, 1, 36.959976, 5.660004)">
    <path class="cls-2" d="M882.32,542.47c3.85,5.04,5.78,11.25,5.78,18.62,0,10.43-4.05,18.44-12.15,24.05-8.1,5.61-19.92,8.42-35.45,8.42h-61.54v-119h58.14c14.51,0,25.64,2.78,33.41,8.33,7.76,5.55,11.64,13.09,11.64,22.61,0,5.78-1.39,10.94-4.17,15.47-2.78,4.53-6.66,8.1-11.64,10.71,6.8,2.15,12.13,5.75,15.98,10.79Zm-75.99-47.17v28.05h27.37c6.8,0,11.96-1.19,15.47-3.57,3.51-2.38,5.27-5.89,5.27-10.54s-1.76-8.13-5.27-10.46c-3.51-2.32-8.67-3.48-15.47-3.48h-27.37Zm48.54,73.95c3.68-2.38,5.52-6.06,5.52-11.05,0-9.86-7.31-14.79-21.93-14.79h-32.13v29.41h32.13c7.25,0,12.72-1.19,16.41-3.57Z" style="fill: rgb(255, 255, 255);"/>
    <path class="cls-2" d="M984.83,593.56l-22.95-33.15h-25.33v33.15h-27.54v-119h51.51c10.54,0,19.69,1.76,27.46,5.27,7.76,3.51,13.74,8.5,17.94,14.96,4.19,6.46,6.29,14.11,6.29,22.95s-2.12,16.46-6.38,22.87c-4.25,6.4-10.29,11.3-18.1,14.71l26.69,38.25h-29.58Zm-6.97-91.21c-4.31-3.57-10.6-5.36-18.87-5.36h-22.44v41.48h22.44c8.27,0,14.56-1.81,18.87-5.44,4.31-3.63,6.46-8.73,6.46-15.3s-2.15-11.81-6.46-15.38Z" style="fill: rgb(255, 255, 255);"/>
    <path class="cls-2" d="M1033.96,474.56h27.54v119h-27.54v-119Z" style="fill: rgb(255, 255, 255);"/>
    <path class="cls-2" d="M1170.13,532.19h25.16v48.28c-6.46,4.87-13.94,8.61-22.44,11.22s-17.06,3.91-25.67,3.91c-12.35,0-23.46-2.63-33.32-7.91-9.86-5.27-17.59-12.58-23.21-21.93s-8.42-19.92-8.42-31.71,2.8-22.36,8.42-31.71c5.61-9.35,13.4-16.66,23.38-21.93,9.97-5.27,21.19-7.91,33.66-7.91,10.43,0,19.89,1.76,28.39,5.27,8.5,3.51,15.64,8.61,21.42,15.3l-17.68,16.32c-8.5-8.95-18.76-13.43-30.77-13.43-7.59,0-14.34,1.59-20.23,4.76-5.89,3.17-10.48,7.65-13.77,13.43-3.29,5.78-4.93,12.41-4.93,19.89s1.64,13.94,4.93,19.72c3.29,5.78,7.85,10.29,13.68,13.52,5.84,3.23,12.5,4.84,19.97,4.84,7.93,0,15.07-1.7,21.42-5.1v-34.85Z" style="fill: rgb(255, 255, 255);"/>
    <path class="cls-2" d="M1329.93,474.56v119h-27.54v-48.79h-54.06v48.79h-27.54v-119h27.54v46.92h54.06v-46.92h27.54Z" style="fill: rgb(255, 255, 255);"/>
    <path class="cls-2" d="M1382.79,497h-38.08v-22.44h103.7v22.44h-38.08v96.56h-27.54v-96.56Z" style="fill: rgb(255, 255, 255);"/>
  </g>
  <g transform="matrix(1, 0, 0, 1, 36.959976, 5.660004)">
    <polygon class="cls-1" points="640.99 594.24 684.74 594.24 710.95 629.48 640.99 629.48 597.25 629.48 571.04 594.24 640.99 594.24"/>
    <polygon class="cls-1" points="658.17 516.72 634.21 551.95 564.51 551.95 588.16 516.72 658.17 516.72"/>
    <polygon class="cls-1" points="710.93 439.21 710.93 439.2 641 439.2 596.09 439.2 572.45 474.43 641 474.43 677.42 474.43 677.42 474.44 686.97 474.44 710.95 439.2 710.93 439.21"/>
    <polygon class="cls-2" points="467.61 594.25 422.72 594.25 421.66 594.24 397.68 629.47 467.61 629.47 512.52 629.47 536.16 594.25 467.61 594.25" style="fill: rgb(255, 255, 255);"/>
    <polygon class="cls-2" points="474.4 516.72 497.41 516.72 544.1 516.72 520.45 551.95 497.41 551.95 450.44 551.95 474.4 516.72" style="fill: rgb(255, 255, 255);"/>
    <polygon class="cls-2" points="467.62 474.44 423.87 474.44 397.67 439.2 467.62 439.2 511.36 439.2 537.57 474.44 467.62 474.44" style="fill: rgb(255, 255, 255);"/>
  </g>
</svg>