<?xml version="1.0" encoding="utf-8"?>
<svg id="Layer_1" data-name="Layer 1" viewBox="500 600 300 300" xmlns="http://www.w3.org/2000/svg">
  <defs>
    <style>
      .cls-1 {
        fill: #72d241;
      }

      .cls-2 {
        fill: #1a1a1a;
      }
    </style>
  </defs>
  <g id="x2" transform="matrix(0.574334, 0, 0, 0.574334, 363.064606, 799.671997)" style="">
    <polygon class="st0" points="728.6,26.6 704.8,26.6 683.9,53.6 663.1,26.6 639.4,26.6 671,71.1 639.8,114.8 663.8,114.8 &#10;&#9;&#9;684.1,88.6 703.9,114.8 728.2,114.8 696.9,71.1 &#9;" style="fill: rgb(241, 90, 44);"/>
  </g>
  <g id="x" transform="matrix(0.574334, 0, 0, 0.574334, 363.064606, 799.671997)" style="">
    <polygon class="st0" points="626.1,26.6 602.4,26.6 581.5,53.6 560.7,26.6 537,26.6 568.6,71.1 537.3,114.8 561.4,114.8 &#10;&#9;&#9;581.6,88.6 601.5,114.8 625.8,114.8 594.5,71.1 &#9;" style="fill: rgb(241, 90, 44);"/>
  </g>
  <g id="e" transform="matrix(0.574334, 0, 0, 0.574334, 363.064606, 799.671997)" style="">
    <polygon class="st0" points="451.6,26.1 451.6,46.4 502.3,46.4 502.3,61.6 467.9,61.6 467.9,81.9 502.3,81.9 502.3,94.5 &#10;&#9;&#9;451.6,94.5 451.6,114.8 522.6,114.8 522.6,26.1 &#9;" style="fill: rgb(241, 90, 44);"/>
  </g>
  <g id="l" transform="matrix(0.574334, 0, 0, 0.574334, 363.064606, 799.671997)" style="">
    <polygon class="st0" points="387.2,94.5 387.2,26.1 366.9,26.1 366.9,114.8 437.9,114.8 437.9,94.5 &#9;" style="fill: rgb(241, 90, 44);"/>
  </g>
  <g id="f" transform="matrix(0.574334, 0, 0, 0.574334, 363.064606, 799.671997)" style="">
    <polygon class="st0" points="352.9,46.4 352.9,26.1 282,26.1 282,114.8 302.2,114.8 302.2,81.9 336.6,81.9 336.6,61.6 302.2,61.6 &#10;&#9;&#9;302.2,46.4 &#9;" style="fill: rgb(241, 90, 44);"/>
  </g>
  <g id="_x36_" transform="matrix(1, 0, 0, 1, 535.909912, 633.220764)">
    <polygon class="st0" points="180.2,114.8 212.6,114.8 232,140.9 180.2,140.9 147.8,140.9 128.4,114.8 &#9;" style="fill: rgb(241, 90, 44);"/>
  </g>
  <g id="_x35_" transform="matrix(1, 0, 0, 1, 535.909912, 633.220764)">
    <polygon class="st0" points="192.9,57.4 175.2,83.5 123.6,83.5 141.1,57.4 &#9;" style="fill: rgb(241, 90, 44);"/>
  </g>
  <g id="_x34_" transform="matrix(1, 0, 0, 1, 535.909912, 633.220764)">
    <polygon class="st0" points="232,0 232,0 180.2,0 147,0 129.4,26.1 180.2,26.1 207.2,26.1 207.2,26.1 214.3,26.1 232,0 &#9;" style="fill: rgb(241, 90, 44);"/>
  </g>
  <g id="_x33_" transform="matrix(1, 0, 0, 1, 535.909912, 633.220764)">
    <polygon class="st0" points="51.8,114.8 18.6,114.8 17.8,114.8 0,140.9 51.8,140.9 85.1,140.9 102.6,114.8 &#9;" style="fill: rgb(241, 90, 44);"/>
  </g>
  <g id="_x32_" transform="matrix(1, 0, 0, 1, 535.909912, 633.220764)">
    <polygon class="st0" points="56.8,57.4 73.9,57.4 108.5,57.4 90.9,83.5 73.9,83.5 39.1,83.5 &#9;" style="fill: rgb(241, 90, 44);"/>
  </g>
  <g id="_x31_" transform="matrix(1, 0, 0, 1, 535.909912, 633.220764)">
    <polygon class="st0" points="51.8,26.1 19.4,26.1 0,0 51.8,0 84.2,0 103.6,26.1 &#9;" style="fill: rgb(241, 90, 44);"/>
  </g>
</svg>